<?xml version="1.0" encoding="utf-8"?>
<!-- Generator: Adobe Illustrator 16.0.0, SVG Export Plug-In . SVG Version: 6.00 Build 0)  -->
<!DOCTYPE svg PUBLIC "-//W3C//DTD SVG 1.1//EN" "http://www.w3.org/Graphics/SVG/1.1/DTD/svg11.dtd">
<svg version="1.1" xmlns="http://www.w3.org/2000/svg" xmlns:xlink="http://www.w3.org/1999/xlink" x="0px" y="0px"
	 width="534.833px" height="420.29px" viewBox="0 0 534.833 420.29" enable-background="new 0 0 534.833 420.29"
	 xml:space="preserve">
<g id="Default">
	<linearGradient id="SVGID_1_" gradientUnits="userSpaceOnUse" x1="68.1548" y1="420.29" x2="68.1548" y2="2.441406e-04">
		<stop  offset="0" style="stop-color:#ED5565"/>
		<stop  offset="1" style="stop-color:#DA4453"/>
	</linearGradient>
	<path fill="url(#SVGID_1_)" d="M136.31,283.96c0,4.05-2.05,7.62-5.17,9.72c-0.15,0.11-0.31,0.21-0.47,0.31
		c-1.77,1.07-3.86,1.7-6.08,1.7c-3.22-0.01-9.5-2.7-10.02-2.93c-0.02-0.01-0.05-0.01-0.07-0.02c-4.07-1.77-7.4,0.41-7.4,4.86v31.8
		c0,0.01,0,0.01,0,0.01v90.88H0V0h107.1v238.52c0,0,0,0,0,0.01v31.8c0,4.45,3.33,6.63,7.4,4.86c0.02,0,0.05-0.01,0.07-0.02
		c0.52-0.23,6.8-2.92,10.02-2.92c2.22,0,4.31,0.62,6.08,1.69c0.16,0.1,0.32,0.2,0.47,0.31
		C134.26,276.35,136.31,279.92,136.31,283.96z"/>
	<linearGradient id="SVGID_2_" gradientUnits="userSpaceOnUse" x1="175.2549" y1="0" x2="175.2549" y2="420.2903">
		<stop  offset="0" style="stop-color:#FFCE54"/>
		<stop  offset="1" style="stop-color:#F6BB42"/>
	</linearGradient>
	<path fill="url(#SVGID_2_)" d="M243.41,283.96c0,4.05-2.05,7.62-5.17,9.72c-0.15,0.11-0.31,0.21-0.47,0.31
		c-1.77,1.07-3.86,1.7-6.08,1.7c-3.22-0.01-9.5-2.7-10.02-2.93c-0.02-0.01-0.05-0.01-0.07-0.02c-4.07-1.77-7.4,0.41-7.4,4.86v31.8
		c0,0.01,0,0.01,0,0.01v90.88H107.1v-90.88c0,0,0,0,0-0.01v-31.8c0-4.45,3.33-6.63,7.4-4.86c0.02,0.01,0.05,0.01,0.07,0.02
		c0.52,0.23,6.8,2.92,10.02,2.93c2.22,0,4.31-0.63,6.08-1.7c0.16-0.1,0.32-0.2,0.47-0.31c3.12-2.1,5.17-5.67,5.17-9.72
		c0-4.04-2.05-7.61-5.17-9.71c-0.15-0.11-0.31-0.21-0.47-0.31c-1.77-1.07-3.86-1.69-6.08-1.69c-3.22,0-9.5,2.69-10.02,2.92
		c-0.02,0.01-0.05,0.02-0.07,0.02c-4.07,1.77-7.4-0.41-7.4-4.86v-31.8c0-0.01,0-0.01,0-0.01V0h107.1v238.52c0,0,0,0,0,0.01v31.8
		c0,4.45,3.33,6.63,7.4,4.86c0.02,0,0.05-0.01,0.07-0.02c0.52-0.23,6.8-2.92,10.02-2.92c2.22,0,4.31,0.62,6.08,1.69
		c0.16,0.1,0.32,0.2,0.47,0.31C241.36,276.35,243.41,279.92,243.41,283.96z"/>
	<linearGradient id="SVGID_3_" gradientUnits="userSpaceOnUse" x1="481.9502" y1="420.29" x2="481.9502" y2="-0.0098">
		<stop  offset="0.0044" style="stop-color:#AC92EC"/>
		<stop  offset="1" style="stop-color:#967ADC"/>
	</linearGradient>
	<path fill="url(#SVGID_3_)" d="M535.5-0.01v280.19c0,0.01,0,0.01,0,0.02v140.09H428.4v-90.88c0,0,0,0,0-0.01v-31.8
		c0-4.45,3.33-6.63,7.4-4.86c0.02,0.01,0.05,0.01,0.07,0.02c0.52,0.23,6.8,2.92,10.02,2.93c2.23,0,4.31-0.63,6.08-1.7
		c0.16-0.1,0.32-0.2,0.47-0.31c3.12-2.1,5.17-5.67,5.17-9.72c0-4.04-2.05-7.61-5.17-9.71c-0.15-0.11-0.31-0.21-0.47-0.31
		c-1.77-1.07-3.85-1.69-6.08-1.69c-3.22,0-9.5,2.69-10.02,2.92c-0.02,0.01-0.05,0.02-0.07,0.02c-4.07,1.77-7.4-0.41-7.4-4.86v-31.8
		c0-0.01,0-0.01,0-0.01V-0.01H535.5z"/>
	<linearGradient id="SVGID_4_" gradientUnits="userSpaceOnUse" x1="282.355" y1="420.29" x2="282.3549" y2="-0.0098">
		<stop  offset="0" style="stop-color:#A0D468"/>
		<stop  offset="1" style="stop-color:#8CC152"/>
	</linearGradient>
	<path fill="url(#SVGID_4_)" d="M350.51,283.96c0,4.05-2.05,7.62-5.17,9.72c-0.15,0.11-0.31,0.21-0.47,0.31
		c-1.77,1.07-3.85,1.7-6.08,1.7c-3.22-0.01-9.5-2.7-10.02-2.93c-0.02-0.01-0.05-0.01-0.07-0.02c-4.07-1.77-7.4,0.41-7.4,4.86v31.8
		c0,0.01,0,0.01,0,0.01v90.88H214.2v-90.88c0,0,0,0,0-0.01v-31.8c0-4.45,3.33-6.63,7.4-4.86c0.02,0.01,0.05,0.01,0.07,0.02
		c0.52,0.23,6.8,2.92,10.02,2.93c2.22,0,4.31-0.63,6.08-1.7c0.16-0.1,0.32-0.2,0.47-0.31c3.12-2.1,5.17-5.67,5.17-9.72
		c0-4.04-2.05-7.61-5.17-9.71c-0.15-0.11-0.31-0.21-0.47-0.31c-1.77-1.07-3.86-1.69-6.08-1.69c-3.22,0-9.5,2.69-10.02,2.92
		c-0.02,0.01-0.05,0.02-0.07,0.02c-4.07,1.77-7.4-0.41-7.4-4.86v-31.8c0-0.01,0-0.01,0-0.01V0c35.7,0,71.4-0.01,107.1-0.01v238.53
		c0,0,0,0,0,0.01v31.8c0,4.45,3.33,6.63,7.4,4.86c0.02,0,0.05-0.01,0.07-0.02c0.52-0.23,6.8-2.92,10.02-2.92
		c2.23,0,4.31,0.62,6.08,1.69c0.16,0.1,0.32,0.2,0.47,0.31C348.46,276.35,350.51,279.92,350.51,283.96z"/>
	<linearGradient id="SVGID_5_" gradientUnits="userSpaceOnUse" x1="389.4551" y1="-0.01" x2="389.455" y2="420.2903">
		<stop  offset="0" style="stop-color:#4FC1E9"/>
		<stop  offset="1" style="stop-color:#3BAFDA"/>
	</linearGradient>
	<path fill="url(#SVGID_5_)" d="M457.61,283.96c0,4.05-2.05,7.62-5.17,9.72c-0.15,0.11-0.31,0.21-0.47,0.31
		c-1.77,1.07-3.85,1.7-6.08,1.7c-3.22-0.01-9.5-2.7-10.02-2.93c-0.02-0.01-0.05-0.01-0.07-0.02c-4.07-1.77-7.4,0.41-7.4,4.86v31.8
		c0,0.01,0,0.01,0,0.01v90.88H321.3v-90.88c0,0,0,0,0-0.01v-31.8c0-4.45,3.33-6.63,7.4-4.86c0.02,0.01,0.05,0.01,0.07,0.02
		c0.52,0.23,6.8,2.92,10.02,2.93c2.23,0,4.31-0.63,6.08-1.7c0.16-0.1,0.32-0.2,0.47-0.31c3.12-2.1,5.17-5.67,5.17-9.72
		c0-4.04-2.05-7.61-5.17-9.71c-0.15-0.11-0.31-0.21-0.47-0.31c-1.77-1.07-3.85-1.69-6.08-1.69c-3.22,0-9.5,2.69-10.02,2.92
		c-0.02,0.01-0.05,0.02-0.07,0.02c-4.07,1.77-7.4-0.41-7.4-4.86v-31.8c0-0.01,0-0.01,0-0.01V-0.01h107.1v238.53c0,0,0,0,0,0.01v31.8
		c0,4.45,3.33,6.63,7.4,4.86c0.02,0,0.05-0.01,0.07-0.02c0.52-0.23,6.8-2.92,10.02-2.92c2.23,0,4.31,0.62,6.08,1.69
		c0.16,0.1,0.32,0.2,0.47,0.31C455.56,276.35,457.61,279.92,457.61,283.96z"/>
</g>
<g id="Layer_3" display="none">
	<linearGradient id="SVGID_6_" gradientUnits="userSpaceOnUse" x1="-251.2119" y1="247.9897" x2="-251.2119" y2="668.29">
		<stop  offset="0" style="stop-color:#6D256A"/>
		<stop  offset="1" style="stop-color:#DA4453"/>
	</linearGradient>
	<path display="inline" fill="url(#SVGID_6_)" d="M-183.057,531.96c0,4.05-2.05,7.62-5.17,9.72c-0.15,0.11-0.31,0.21-0.47,0.31
		c-1.77,1.07-3.85,1.7-6.08,1.7c-3.22-0.01-9.5-2.7-10.02-2.93c-0.02-0.01-0.05-0.01-0.07-0.02c-4.07-1.77-7.4,0.41-7.4,4.86v31.8
		c0,0.01,0,0.01,0,0.01v90.88h-107.1v-90.88c0,0,0,0,0-0.01v-31.8c0-4.45,3.33-6.63,7.4-4.86c0.02,0.01,0.05,0.01,0.07,0.02
		c0.52,0.23,6.8,2.92,10.02,2.93c2.23,0,4.31-0.63,6.08-1.7c0.16-0.1,0.32-0.2,0.47-0.31c3.12-2.1,5.17-5.67,5.17-9.72
		c0-4.04-2.05-7.61-5.17-9.71c-0.15-0.11-0.31-0.21-0.47-0.31c-1.77-1.07-3.85-1.69-6.08-1.69c-3.22,0-9.5,2.69-10.02,2.92
		c-0.02,0.01-0.05,0.02-0.07,0.02c-4.07,1.77-7.4-0.41-7.4-4.86v-31.8c0-0.01,0-0.01,0-0.01V247.99h107.1v238.53c0,0,0,0,0,0.01
		v31.8c0,4.45,3.33,6.63,7.4,4.86c0.02,0,0.05-0.01,0.07-0.02c0.52-0.23,6.8-2.92,10.02-2.92c2.23,0,4.31,0.62,6.08,1.69
		c0.16,0.1,0.32,0.2,0.47,0.31C-185.107,524.35-183.057,527.92-183.057,531.96z"/>
</g>
<g id="Layer_01" display="none">
	<path display="inline" fill="#FFFFFF" d="M270.51,82.89v17.53c0,1.8-2.81,1.84-2.81-0.03v-2.47c-1.41,2.86-4.43,4.11-7.48,4.11
		c-4.54,0-8.88-3.13-8.88-8.77V82.89c0-0.86,0.51-1.37,1.41-1.37c0.86,0,1.44,0.51,1.44,1.37v10.37c0,3.6,2.9,6.11,6.07,6.11
		c3.8,0,7.36-3.13,7.36-7.4v-9.08c0-0.86,0.51-1.37,1.41-1.37C269.93,81.52,270.51,82.03,270.51,82.89z"/>
	<path display="inline" fill="#FFFFFF" d="M241.9,88.17c2.04-0.82,3.02-2.62,3.02-4.65c0-5.56-5.64-6.77-9.28-6.77h-9.27
		c-0.79,0-1.45,0.62-1.45,1.4v22.08c0,0.78,0.66,1.41,1.45,1.41h10.17c4.93,0,10.18-1.57,10.18-7.4
		C246.72,91.07,244.76,89.07,241.9,88.17z M227.77,79.29h7.87c2.43,0,6.42,0.86,6.42,4.23c0,2.85-2.93,3.75-6.3,3.75h-7.99V79.29z
		 M236.54,99.09h-8.77v-9.27h9.95c3.4,0,6.06,1.33,6.06,4.42C243.78,98.19,239.99,99.09,236.54,99.09z"/>
	<path display="inline" fill="none" d="M235.76,87.27h-7.99v-7.98h7.87c2.43,0,6.42,0.86,6.42,4.23
		C242.06,86.37,239.13,87.27,235.76,87.27z"/>
	<path display="inline" fill="none" d="M243.78,94.24c0,3.95-3.79,4.85-7.24,4.85h-8.77v-9.27h9.95
		C241.12,89.82,243.78,91.15,243.78,94.24z"/>
	<path display="inline" fill="#FFFFFF" d="M387.12,179.28c-11.97-23.56-23.95-47.11-35.93-70.67c-0.83-1.55-2.27-2.27-3.82-2.27
		c-1.55,0-3.22,0.72-3.94,2.27c-12.01,23.68-24.03,47.35-36.05,71.03c-2.15,4.77,5.73,7.88,7.88,3.46
		c3.22-6.29,6.45-12.57,9.67-18.86h44.88c3.11,6.17,6.21,12.34,9.31,18.5C381.39,187.4,390.23,184.41,387.12,179.28z M328.51,156.72
		l18.86-37.6l18.74,37.6H328.51z"/>
	<polygon display="inline" fill="none" points="366.11,156.72 328.51,156.72 347.37,119.12 	"/>
	<polygon display="inline" fill="none" points="366.11,156.72 328.51,156.72 347.37,119.12 	"/>
	<path display="inline" fill="none" d="M243.78,94.24c0,3.95-3.79,4.85-7.24,4.85h-8.77v-9.27h9.95
		C241.12,89.82,243.78,91.15,243.78,94.24z"/>
	<path display="inline" fill="none" d="M215.23,161.73c0,12.06-11.58,14.81-22.09,14.81H166.4v-28.3h30.32
		C207.11,148.24,215.23,152.3,215.23,161.73z"/>
	<path display="inline" fill="none" d="M209.97,129.02c0,8.72-8.95,11.46-19.22,11.46H166.4v-24.35h24
		C197.8,116.13,209.97,118.76,209.97,129.02z"/>
	<path display="inline" fill="#FFFFFF" d="M209.5,143.23c6.2-2.51,9.19-8,9.19-14.21c0-16.95-17.19-20.65-28.29-20.65h-28.29
		c-2.39,0-4.42,1.91-4.42,4.3V180c0,2.38,2.03,4.29,4.42,4.29h31.03c15.04,0,31.04-4.77,31.04-22.56
		C224.18,152.06,218.21,145.98,209.5,143.23z M166.4,116.13h24c7.4,0,19.57,2.63,19.57,12.89c0,8.72-8.95,11.46-19.22,11.46H166.4
		V116.13z M193.14,176.54H166.4v-28.3h30.32c10.39,0,18.51,4.06,18.51,13.49C215.23,173.79,203.65,176.54,193.14,176.54z"/>
	<path display="inline" fill="none" d="M190.75,140.48H166.4v-24.35h24c7.4,0,19.57,2.63,19.57,12.89
		C209.97,137.74,201.02,140.48,190.75,140.48z"/>
	<path display="inline" fill="none" d="M215.23,161.73c0,12.06-11.58,14.81-22.09,14.81H166.4v-28.3h30.32
		C207.11,148.24,215.23,152.3,215.23,161.73z"/>
	<path display="inline" fill="#FFFFFF" d="M294.97,183.34c-9.07-10.55-18.15-21.09-27.22-31.63c-9.19,10.54-18.38,21.08-27.58,31.63
		c-4.41,4.77-10.5-0.72-6.44-5.37c9.47-10.83,18.94-21.65,28.41-32.47c-9.19-10.59-18.38-21.17-27.58-31.75
		c-3.46-3.94,2.99-9.2,6.57-5.14c8.87,10.39,17.75,20.77,26.62,31.16c8.83-10.35,17.67-20.69,26.5-31.04
		c3.58-4.3,10.39,1.2,6.57,5.25c-9.24,10.51-18.47,21.01-27.7,31.52c9.51,10.86,19.02,21.72,28.53,32.59
		C305.71,183.1,299.62,188,294.97,183.34z"/>
	<path display="inline" fill="none" d="M242.06,83.52c0,2.85-2.93,3.75-6.3,3.75h-7.99v-7.98h7.87
		C238.07,79.29,242.06,80.15,242.06,83.52z"/>
	<path display="inline" fill="none" d="M307.97,90.21v3.09c0,3.84-3.01,6.11-6.57,6.11c-1.49-0.12-2.9-0.59-4.04-1.49
		c-2.11-1.76-2.93-4.11-2.89-6.65c0.04-1.02,0.27-2.08,0.58-2.9c1.14-2.7,3.92-4.19,6.7-4.19
		C305.31,84.34,307.97,86.76,307.97,90.21z"/>
	<path display="inline" fill="#FFFFFF" d="M307.97,76.86v7.79c-1.17-2.07-3.72-3.17-6.34-3.17c-5.87,0-9.86,4.19-10.02,9.75
		c-0.12,4.54,2.04,8.41,6.3,10.17c-0.01-0.01-0.02-0.02-0.04-0.04c1.22,0.51,2.55,0.75,3.76,0.75c2.35,0,5.09-1.02,6.42-3.45v1.84
		c0,0.86,0.43,1.37,1.33,1.37s1.45-0.51,1.45-1.37V76.86C310.83,75.06,307.97,75.06,307.97,76.86z M307.97,93.3
		c0,3.84-3.01,6.11-6.57,6.11c-1.49-0.12-2.9-0.59-4.04-1.49c-2.11-1.76-2.93-4.11-2.89-6.65c0.04-1.02,0.27-2.08,0.58-2.9
		c1.14-2.7,3.92-4.19,6.7-4.19c3.56,0.16,6.22,2.58,6.22,6.03V93.3z"/>
	<path display="inline" fill="none" d="M307.97,90.21v3.09c0,3.84-3.01,6.11-6.57,6.11c-1.49-0.12-2.9-0.59-4.04-1.49
		c-2.11-1.76-2.93-4.11-2.89-6.65c0.04-1.02,0.27-2.08,0.58-2.9c1.14-2.7,3.92-4.19,6.7-4.19
		C305.31,84.34,307.97,86.76,307.97,90.21z"/>
	<path display="inline" fill="#FFFFFF" d="M287.38,76.98v23.48c0,0.75-0.62,1.33-1.41,1.33c-0.86,0-1.44-0.58-1.44-1.33V76.98
		c0-0.74,0.58-1.33,1.44-1.33C286.76,75.65,287.38,76.24,287.38,76.98z"/>
	<path display="inline" fill="#FFFFFF" d="M279.12,77.02v1.76c0,1.76-2.93,1.8-2.93,0v-1.76C276.19,75.22,279.12,75.22,279.12,77.02
		z"/>
	<path display="inline" fill="#FFFFFF" d="M279.09,82.97v17.65c0,1.72-2.86,1.68-2.86,0V83.01
		C276.23,81.32,279.09,81.29,279.09,82.97z"/>
</g>
</svg>
